# xmcd
# 
# Track frame offsets:
#     150
#     18225
#     37474
#     59556
#     69894
#     89519
#     108088
#     129729
#     151515
#     169384
#     186033
#     204216
#     220077
#     241763
#     260175
#     278720
#     296294
#     310270
# 
# Disc length: 4408
# 
# Revision: 1
# Processed by: cddbd v1.5.2PL0 Copyright (c) Steve Scherf et al.
# Submitted via: BonkEnc v1.0.8
# 
DISCID=00113612
DTITLE=ZZ Top - Greatest Hits
DYEAR=1992
DGENRE=Rock
TTITLE0=Gimme All Your Lovin'
TTITLE1=Sharp Dressed Man
TTITLE2=Rough Boy
TTITLE3=Tush
TTITLE4=My Head's In Mississippi
TTITLE5=Pearl Necklace
TTITLE6=I'm Bad, I'm Nationwide
TTITLE7=Viva Las Vegas
TTITLE8=Doubleback
TTITLE9=Gun Love
TTITLE10=Got Me Under Pressure
TTITLE11=Give It Up
TTITLE12=Cheap Sunglasses
TTITLE13=Sleeping Bag
TTITLE14=Planet Of Women
TTITLE15=La Grange
TTITLE16=Tube Snake Boogie
TTITLE17=Legs
EXTD=
EXTT0=
EXTT1=
EXTT2=
EXTT3=
EXTT4=
EXTT5=
EXTT6=
EXTT7=
EXTT8=
EXTT9=
EXTT10=
EXTT11=
EXTT12=
EXTT13=
EXTT14=
EXTT15=
EXTT16=
EXTT17=
PLAYORDER=
